<svg width="12" height="9" viewBox="0 0 12 9" fill="none" xmlns="http://www.w3.org/2000/svg">
<path d="M3.99999 6.78005L1.68665 4.46672C1.562 4.34207 1.39294 4.27204 1.21665 4.27204C1.04037 4.27204 0.871304 4.34207 0.746652 4.46672C0.622 4.59137 0.551971 4.76043 0.551971 4.93672C0.551971 5.02401 0.569164 5.11044 0.602567 5.19108C0.635971 5.27172 0.684931 5.345 0.746652 5.40672L3.53332 8.19339C3.79332 8.45339 4.21332 8.45339 4.47332 8.19339L11.5267 1.14005C11.6513 1.0154 11.7213 0.846336 11.7213 0.670052C11.7213 0.493767 11.6513 0.324703 11.5267 0.200052C11.402 0.0753999 11.2329 0.00537109 11.0567 0.00537109C10.8804 0.00537109 10.7113 0.0753999 10.5867 0.200052L3.99999 6.78005Z" fill="#3D45FA"/>
</svg>
