<svg width="29" height="29" viewBox="0 0 29 29" fill="none" xmlns="http://www.w3.org/2000/svg">
<path d="M14.5 2.41663C13.8958 2.41663 13.2917 2.64621 12.7962 3.12954L3.12957 12.7962C2.17499 13.7387 2.17499 15.2612 3.12957 16.2037L12.7962 25.8704C13.7387 26.825 15.2612 26.825 16.2037 25.8704L25.8704 16.2037C26.825 15.2612 26.825 13.7387 25.8704 12.7962L16.2037 3.12954C15.7083 2.64621 15.1042 2.41663 14.5 2.41663Z" fill="url(#paint0_linear_7_1157)"/>
<path d="M14.5 9.12964C14.2315 9.12964 13.9629 9.23168 13.7428 9.44649L9.44646 13.7428C9.0222 14.1617 9.0222 14.8383 9.44646 15.2572L13.7428 19.5535C14.1616 19.9778 14.8383 19.9778 15.2572 19.5535L19.5535 15.2572C19.9778 14.8383 19.9778 14.1617 19.5535 13.7428L15.2572 9.44649C15.037 9.23168 14.7685 9.12964 14.5 9.12964Z" fill="white"/>
<defs>
<linearGradient id="paint0_linear_7_1157" x1="14.5" y1="2.41663" x2="14.5" y2="26.5863" gradientUnits="userSpaceOnUse">
<stop stop-color="#403DFC"/>
<stop offset="1" stop-color="#07FED2"/>
</linearGradient>
</defs>
</svg>
